<svg xmlns="http://www.w3.org/2000/svg" xmlns:xlink="http://www.w3.org/1999/xlink" width="150" height="150" viewBox="0 0 150 150">
  <defs>
    <filter id="사각형_7" x="10" y="16" width="80" height="62" filterUnits="userSpaceOnUse">
      <feOffset dx="2" dy="2" input="SourceAlpha"/>
      <feGaussianBlur stdDeviation="1" result="blur"/>
      <feFlood flood-opacity="0.478"/>
      <feComposite operator="in" in2="blur"/>
      <feComposite in="SourceGraphic"/>
    </filter>
    <filter id="사각형_7-2" x="10" y="30" width="80" height="62" filterUnits="userSpaceOnUse">
      <feOffset dx="2" dy="2" input="SourceAlpha"/>
      <feGaussianBlur stdDeviation="1" result="blur-2"/>
      <feFlood flood-opacity="0.478"/>
      <feComposite operator="in" in2="blur-2"/>
      <feComposite in="SourceGraphic"/>
    </filter>
    <filter id="사각형_7-3" x="10" y="45" width="80" height="62" filterUnits="userSpaceOnUse">
      <feOffset dx="2" dy="2" input="SourceAlpha"/>
      <feGaussianBlur stdDeviation="1" result="blur-3"/>
      <feFlood flood-opacity="0.478"/>
      <feComposite operator="in" in2="blur-3"/>
      <feComposite in="SourceGraphic"/>
    </filter>
    <filter id="사각형_29" x="68" y="30" width="74" height="102" filterUnits="userSpaceOnUse">
      <feOffset dx="1" dy="1" input="SourceAlpha"/>
      <feGaussianBlur stdDeviation="1" result="blur-4"/>
      <feFlood flood-opacity="0.451"/>
      <feComposite operator="in" in2="blur-4"/>
      <feComposite in="SourceGraphic"/>
    </filter>
    <filter id="사각형_29-2" x="56" y="39" width="74" height="102" filterUnits="userSpaceOnUse">
      <feOffset dx="1" dy="1" input="SourceAlpha"/>
      <feGaussianBlur stdDeviation="1" result="blur-5"/>
      <feFlood flood-opacity="0.451"/>
      <feComposite operator="in" in2="blur-5"/>
      <feComposite in="SourceGraphic"/>
    </filter>
    <filter id="사각형_29-3" x="39" y="46" width="74" height="102" filterUnits="userSpaceOnUse">
      <feOffset dx="1" dy="1" input="SourceAlpha"/>
      <feGaussianBlur stdDeviation="1" result="blur-6"/>
      <feFlood flood-opacity="0.451"/>
      <feComposite operator="in" in2="blur-6"/>
      <feComposite in="SourceGraphic"/>
    </filter>
  </defs>
  <g id="multiple-dir-files" transform="translate(-544 -146)">
    <g id="사각형_37" data-name="사각형 37" transform="translate(544 146)" fill="#fff" stroke="#707070" stroke-width="1">
      <rect width="150" height="150" stroke="none"/>
      <rect x="0.5" y="0.5" width="149" height="149" fill="none"/>
    </g>
    <g id="directory_icon" data-name="directory icon" transform="translate(555 155)">
      <path id="패스_1" data-name="패스 1" d="M-1747-1167v64h74v-54.857h-42.286l-10.572-9.143Z" transform="translate(1747 1167)" fill="#1db21d" stroke="#126112" stroke-width="0.8"/>
      <g transform="matrix(1, 0, 0, 1, -11, -9)" filter="url(#사각형_7)">
        <g id="사각형_7-4" data-name="사각형 7" transform="translate(11 17)" fill="#58c658" stroke="#126112" stroke-width="0.8">
          <rect width="74" height="56" stroke="none"/>
          <rect x="0.4" y="0.4" width="73.2" height="55.2" fill="none"/>
        </g>
      </g>
    </g>
    <g id="directory_icon-2" data-name="directory icon" transform="translate(555 169)">
      <path id="패스_1-2" data-name="패스 1" d="M-1747-1167v64h74v-54.857h-42.286l-10.572-9.143Z" transform="translate(1747 1167)" fill="#1db21d" stroke="#126112" stroke-width="0.8"/>
      <g transform="matrix(1, 0, 0, 1, -11, -23)" filter="url(#사각형_7-2)">
        <g id="사각형_7-5" data-name="사각형 7" transform="translate(11 31)" fill="#58c658" stroke="#126112" stroke-width="0.8">
          <rect width="74" height="56" stroke="none"/>
          <rect x="0.4" y="0.4" width="73.2" height="55.2" fill="none"/>
        </g>
      </g>
    </g>
    <g id="directory_icon-3" data-name="directory icon" transform="translate(555 184)">
      <path id="패스_1-3" data-name="패스 1" d="M-1747-1167v64h74v-54.857h-42.286l-10.572-9.143Z" transform="translate(1747 1167)" fill="#1db21d" stroke="#126112" stroke-width="0.8"/>
      <g transform="matrix(1, 0, 0, 1, -11, -38)" filter="url(#사각형_7-3)">
        <g id="사각형_7-6" data-name="사각형 7" transform="translate(11 46)" fill="#58c658" stroke="#126112" stroke-width="0.8">
          <rect width="74" height="56" stroke="none"/>
          <rect x="0.4" y="0.4" width="73.2" height="55.2" fill="none"/>
        </g>
      </g>
    </g>
    <g id="unknown" transform="translate(614.328 178.231)">
      <g transform="matrix(1, 0, 0, 1, -70.33, -32.23)" filter="url(#사각형_29)">
        <g id="사각형_29-4" data-name="사각형 29" transform="translate(70 32)" fill="#d9ebd9" stroke="#707070" stroke-width="0.3">
          <rect width="68" height="96" stroke="none"/>
          <rect x="0.15" y="0.15" width="67.7" height="95.7" fill="none"/>
        </g>
      </g>
      <rect id="사각형_30" data-name="사각형 30" width="68" height="3" transform="translate(-0.328 92.769)" fill="#58c658"/>
    </g>
    <g id="unknown-2" data-name="unknown" transform="translate(602.328 187.231)">
      <g transform="matrix(1, 0, 0, 1, -58.33, -41.23)" filter="url(#사각형_29-2)">
        <g id="사각형_29-5" data-name="사각형 29" transform="translate(58 41)" fill="#d9ebd9" stroke="#707070" stroke-width="0.3">
          <rect width="68" height="96" stroke="none"/>
          <rect x="0.15" y="0.15" width="67.7" height="95.7" fill="none"/>
        </g>
      </g>
      <rect id="사각형_30-2" data-name="사각형 30" width="68" height="3" transform="translate(-0.328 92.769)" fill="#58c658"/>
    </g>
    <g id="unknown-3" data-name="unknown" transform="translate(585.328 194.231)">
      <g transform="matrix(1, 0, 0, 1, -41.33, -48.23)" filter="url(#사각형_29-3)">
        <g id="사각형_29-6" data-name="사각형 29" transform="translate(41 48)" fill="#d9ebd9" stroke="#707070" stroke-width="0.3">
          <rect width="68" height="96" stroke="none"/>
          <rect x="0.15" y="0.15" width="67.7" height="95.7" fill="none"/>
        </g>
      </g>
      <rect id="사각형_30-3" data-name="사각형 30" width="68" height="3" transform="translate(-0.328 92.769)" fill="#58c658"/>
    </g>
  </g>
</svg>
